<svg xmlns="http://www.w3.org/2000/svg" xmlns:xlink="http://www.w3.org/1999/xlink" viewBox="0 0 184.19 27.28"><defs><style>.cls-1{fill:none;}.cls-2{fill:#fff;}.cls-3{fill:#00988a;}.cls-4{clip-path:url(#clip-path);}.cls-5{fill:url(#radial-gradient);}</style><clipPath id="clip-path"><path class="cls-1" d="M8.36,2.27A4.71,4.71,0,0,0,3.6,6.94V20.33A4.71,4.71,0,0,0,8.36,25H22a4.72,4.72,0,0,0,4.77-4.67V6.94A4.72,4.72,0,0,0,22,2.27Z"/></clipPath><radialGradient id="radial-gradient" cx="117.4" cy="-1739.02" r="1.24" gradientTransform="matrix(25.28, 0, 0, -24.77, -2952.37, -43041.09)" gradientUnits="userSpaceOnUse"><stop offset="0" stop-color="#3e5293"/><stop offset="0.3" stop-color="#3e5293"/><stop offset="1" stop-color="#6a83c1"/></radialGradient></defs><title>facebook</title><g id="Layer_2" data-name="Layer 2"><g id="Layer_1-2" data-name="Layer 1"><path class="cls-2" d="M7.09,0S0,0,0,7V20.32s0,7,7.09,7h170s7.09,0,7.09-7V7S184.19,0,177.1,0H7.09"/><path class="cls-3" d="M35.86,6.47h1.55L33.19,18.92H31.64Z"/><path class="cls-3" d="M37.69,9.92h1.55V11.2h0a3,3,0,0,1,2.85-1.49,2.65,2.65,0,0,1,2.55,1.71,3.21,3.21,0,0,1,2.78-1.71c2.29,0,3.12,1.45,3.12,3.36v5.64H48.92V13.47c0-1.08-.26-2.45-1.6-2.45C45.63,11,45,12.64,45,14.28v4.43H43.31V13.47c0-1.08-.27-2.45-1.6-2.45-1.69,0-2.36,1.62-2.36,3.26v4.43H37.69Z"/><path class="cls-3" d="M54.66,8H52.8V6.13h1.86Zm-1.76,2h1.66v8.79H52.9Z"/><path class="cls-3" d="M56.92,9.92h1.6v1.4h0a3.25,3.25,0,0,1,2.94-1.61c2.33,0,3.36,1.42,3.36,3.78v5.22H63.2V14.16c0-2.05-.46-3.05-1.9-3.14-1.88,0-2.73,1.49-2.73,3.62v4.07H56.92Z"/><path class="cls-3" d="M66.34,17a4.51,4.51,0,0,0,2.06.62c.75,0,1.68-.31,1.68-1.26,0-1.6-3.88-1.47-3.88-3.93,0-1.83,1.39-2.71,3.16-2.71a7,7,0,0,1,2.06.35l-.14,1.41A5,5,0,0,0,69.54,11c-.85,0-1.58.35-1.58,1.07,0,1.79,3.88,1.28,3.88,4.09,0,1.88-1.53,2.74-3.13,2.74a5.33,5.33,0,0,1-2.46-.48Z"/><path class="cls-3" d="M73.61,10.54a5.8,5.8,0,0,1,3-.83c2.57,0,3.61,1.24,3.61,3.64V17a12.66,12.66,0,0,0,.07,1.72H78.69V17.57h0a3.35,3.35,0,0,1-2.78,1.35c-1.94,0-3.29-.83-3.29-2.74,0-2.21,2.46-2.9,4.17-2.9.65,0,1.11,0,1.76,0,0-1.52-.57-2.3-2.22-2.3a4.31,4.31,0,0,0-2.61.9Zm4.91,4c-.36,0-.71,0-1.06,0-.9,0-3.11.14-3.11,1.69A1.57,1.57,0,0,0,76,17.61a2.25,2.25,0,0,0,2.5-2.31Z"/><path class="cls-3" d="M90.24,18.71h-1.6V17.32h0a3.24,3.24,0,0,1-2.94,1.6c-2.32,0-3.36-1.41-3.36-3.78V9.92H84v4.55c0,2,.46,3,1.9,3.14,1.88,0,2.73-1.48,2.73-3.62V9.92h1.65Z"/><path class="cls-3" d="M98.74,17.47h0a3.62,3.62,0,0,1-3.07,1.45c-2.71,0-3.85-2.36-3.85-4.76s1.27-4.45,3.87-4.45a3.23,3.23,0,0,1,3,1.42h0V5.78h1.66V18.71H98.74ZM96,17.61c1.87,0,2.64-1.81,2.64-3.28C98.67,12.7,97.81,11,96,11s-2.49,1.66-2.46,3.26C93.52,15.66,94.26,17.61,96,17.61Z"/><path class="cls-3" d="M109.36,18.35a7.12,7.12,0,0,1-2.84.57c-3.18,0-4.64-1.9-4.64-4.76a4.12,4.12,0,0,1,4.2-4.45c3,0,4,2.14,4,5h-6.4a2.91,2.91,0,0,0,3,2.93,5.4,5.4,0,0,0,2.77-.88Zm-1.08-4.88A2.24,2.24,0,0,0,106.05,11a2.45,2.45,0,0,0-2.41,2.45Z"/><g class="cls-4"><rect class="cls-5" x="3.6" y="2.27" width="23.2" height="22.73"/></g><path class="cls-2" d="M21.44,8.52h2.13V5.23h-3.2a4.39,4.39,0,0,0-3.3,1.58s-.88.81-.89,3.18v2.47H13V16h3.17v9h3.65V16H23l.44-3.5H19.83V10h0a1.46,1.46,0,0,1,1.61-1.47"/></g></g></svg>