<svg xmlns="http://www.w3.org/2000/svg" viewBox="0 0 184.19 27.28"><defs><style>.cls-1{fill:#fff;}.cls-2{fill:#00988a;}</style></defs><title>hashtag</title><g id="Layer_2" data-name="Layer 2"><g id="Layer_1-2" data-name="Layer 1"><path class="cls-1" d="M7.09,0S0,0,0,7V20.32s0,7,7.09,7h170s7.09,0,7.09-7V7S184.19,0,177.1,0H7.09"/><path class="cls-2" d="M5.65,14.85H7.2l.32-1.55H6l.33-1.54H7.84l.45-2.2h1.93l-.45,2.2h1.49l.44-2.2h1.94l-.45,2.2h1.55l-.32,1.54H12.87l-.32,1.55H14L13.7,16.4H12.22l-.45,2.19H9.84l.45-2.19H8.81l-.46,2.19H6.42l.45-2.19H5.33Zm3.48,0h1.48l.33-1.55H9.45Z"/><path class="cls-2" d="M19.25,15.92a2.52,2.52,0,0,0,1.85.74,3,3,0,0,0,1.3-.29,2.84,2.84,0,0,0,.88-.59l.27-.29L25,17l-.14.2a4.38,4.38,0,0,1-.46.43,3.85,3.85,0,0,1-.77.55,4.71,4.71,0,0,1-1.08.44,5.51,5.51,0,0,1-1.41.19,5,5,0,0,1-3.57-1.41,4.61,4.61,0,0,1,0-6.73,5,5,0,0,1,3.57-1.4,5.22,5.22,0,0,1,1.38.18,4.55,4.55,0,0,1,1.08.46,5.65,5.65,0,0,1,.74.53,2.82,2.82,0,0,1,.46.45l.14.18-1.48,1.55-.11-.13a2.1,2.1,0,0,0-.29-.27,2.67,2.67,0,0,0-.47-.36,3.28,3.28,0,0,0-.64-.28,2.84,2.84,0,0,0-.81-.12,2.55,2.55,0,0,0-1.85.73,2.51,2.51,0,0,0-.73,1.85A2.49,2.49,0,0,0,19.25,15.92Z"/><path class="cls-2" d="M34.79,17.44a5.2,5.2,0,0,1-7.12,0,4.59,4.59,0,0,1,0-6.73,5.23,5.23,0,0,1,7.12,0,4.61,4.61,0,0,1,0,6.73Zm-5.35-1.52a2.53,2.53,0,0,0,3.58,0,2.52,2.52,0,0,0,.72-1.84A2.54,2.54,0,0,0,33,12.23a2.56,2.56,0,0,0-3.58,0,2.7,2.7,0,0,0,0,3.69Z"/><path class="cls-2" d="M40.91,13.24v5.35H38.46v-9h2.19l2.77,3.55L46.2,9.56h2.19v9H45.94V13.24L43.42,16.4Z"/><path class="cls-2" d="M51.14,18.59v-9H55.2a3.35,3.35,0,0,1,2.24.72,2.09,2.09,0,0,1,.73,2.38,2,2,0,0,1-.29.54,2.72,2.72,0,0,1-.34.34,2,2,0,0,1-.29.22l-.12.06.17.07a3.11,3.11,0,0,1,.39.22,2.44,2.44,0,0,1,.49.4,2.07,2.07,0,0,1,.39.6,2.05,2.05,0,0,1,.17.83,2.41,2.41,0,0,1-.92,1.86,3.54,3.54,0,0,1-2.36.79Zm2.45-7.09v1.55h1.35a.86.86,0,0,0,.61-.22.72.72,0,0,0,.23-.56.74.74,0,0,0-.23-.56.85.85,0,0,0-.61-.21Zm1.67,5.16a1,1,0,0,0,.7-.26.91.91,0,0,0,0-1.29,1,1,0,0,0-.7-.26H53.59v1.81Z"/><path class="cls-2" d="M63.07,16.66l-.65,1.93H59.78l3.42-9h2.7l3.42,9H66.68L66,16.66Zm1.48-4.58-.84,2.65h1.68Z"/><path class="cls-2" d="M77,9.56v2.2H74.46v6.83H72V11.76H69.5V9.56Z"/><path class="cls-2" d="M80.44,16.66l-.64,1.93H77.15l3.42-9h2.71l3.41,9H84.05l-.65-1.93Zm1.48-4.58-.83,2.65h1.67Z"/><path class="cls-2" d="M96.15,17.44a5.21,5.21,0,0,1-7.13,0,4.61,4.61,0,0,1,0-6.73,5.24,5.24,0,0,1,7.13,0,4.61,4.61,0,0,1,0,6.73ZM90.8,15.92a2.53,2.53,0,0,0,3.58,0,2.52,2.52,0,0,0,.72-1.84,2.54,2.54,0,0,0-.72-1.85,2.56,2.56,0,0,0-3.58,0,2.51,2.51,0,0,0-.73,1.85A2.49,2.49,0,0,0,90.8,15.92Z"/><path class="cls-2" d="M102.27,13.24v5.35H99.82v-9H102l2.77,3.55,2.78-3.55h2.19v9H107.3V13.24l-2.52,3.16Z"/><path class="cls-2" d="M120.54,17.44a5.21,5.21,0,0,1-7.13,0,4.61,4.61,0,0,1,0-6.73,5.24,5.24,0,0,1,7.13,0,4.61,4.61,0,0,1,0,6.73Zm-5.36-1.52a2.55,2.55,0,0,0,3.59,0,2.52,2.52,0,0,0,.72-1.84,2.54,2.54,0,0,0-.72-1.85,2.57,2.57,0,0,0-3.59,0,2.54,2.54,0,0,0-.72,1.85A2.52,2.52,0,0,0,115.18,15.92Z"/><path class="cls-2" d="M127.65,15.39a2,2,0,0,0-.61-.3l-.81-.26a6.6,6.6,0,0,1-.9-.34,4.2,4.2,0,0,1-.81-.5,2,2,0,0,1-.6-.77,2.58,2.58,0,0,1-.23-1.14,2.49,2.49,0,0,1,1-1.94,3.58,3.58,0,0,1,2.45-.83,4.88,4.88,0,0,1,1.17.13,4.43,4.43,0,0,1,.9.32c.23.13.43.26.61.38a1.18,1.18,0,0,1,.36.33l.12.13-1.42,1.48-.18-.19a3.13,3.13,0,0,0-.52-.32,1.68,1.68,0,0,0-.78-.2,1,1,0,0,0-.69.23.69.69,0,0,0-.28.54.52.52,0,0,0,.24.43,1.87,1.87,0,0,0,.6.3l.81.26a7,7,0,0,1,.89.34,4.49,4.49,0,0,1,.82.5,2,2,0,0,1,.6.78,2.54,2.54,0,0,1,.23,1.13,2.7,2.7,0,0,1-1,2.11,3.89,3.89,0,0,1-2.63.86,5.56,5.56,0,0,1-1.29-.16,4.26,4.26,0,0,1-1-.39,6.27,6.27,0,0,1-.71-.45,2.94,2.94,0,0,1-.46-.39l-.13-.16,1.41-1.48.09.1.26.23a2,2,0,0,0,.41.3,2,2,0,0,0,.53.23,2.08,2.08,0,0,0,.64.1,1.2,1.2,0,0,0,.84-.28.86.86,0,0,0,.33-.68A.55.55,0,0,0,127.65,15.39Z"/><path class="cls-2" d="M141.91,15.55a4.06,4.06,0,0,1-.6,1.16,6.14,6.14,0,0,1-.7.79,4.88,4.88,0,0,1-.6.5l-.25.14.2.22a2.56,2.56,0,0,0,.64.34,3,3,0,0,0,1.16.21h.33v1.93h-.46a5.21,5.21,0,0,1-1.49-.2,4.53,4.53,0,0,1-1.14-.49,7.18,7.18,0,0,1-.76-.59,3.29,3.29,0,0,1-.47-.5l-.13-.21h-.51a4.93,4.93,0,0,1-3.57-1.41,4.61,4.61,0,0,1,0-6.73,5.23,5.23,0,0,1,7.12,0,4.6,4.6,0,0,1,1.23,4.84Zm-6.58.37a2.55,2.55,0,0,0,3.59,0,2.52,2.52,0,0,0,.72-1.84,2.54,2.54,0,0,0-.72-1.85,2.57,2.57,0,0,0-3.59,0,2.54,2.54,0,0,0-.72,1.85A2.52,2.52,0,0,0,135.33,15.92Z"/><path class="cls-2" d="M149.57,16.14a1.81,1.81,0,0,0,.5-1.29V9.56h2.45v5.29a3.85,3.85,0,0,1-1.17,2.85,4.37,4.37,0,0,1-5.91,0,3.85,3.85,0,0,1-1.17-2.85V9.56h2.45v5.29a1.81,1.81,0,0,0,.49,1.29,1.61,1.61,0,0,0,1.18.52A1.59,1.59,0,0,0,149.57,16.14Z"/><path class="cls-2" d="M155.2,9.56h2.45v9H155.2Z"/><path class="cls-2" d="M166.91,9.56v2.2h-2.52v6.83H162V11.76h-2.51V9.56Z"/><path class="cls-2" d="M176.8,17.44a5.21,5.21,0,0,1-7.13,0,4.61,4.61,0,0,1,0-6.73,5.24,5.24,0,0,1,7.13,0,4.61,4.61,0,0,1,0,6.73Zm-5.36-1.52a2.55,2.55,0,0,0,3.59,0,2.52,2.52,0,0,0,.72-1.84,2.54,2.54,0,0,0-.72-1.85,2.57,2.57,0,0,0-3.59,0,2.54,2.54,0,0,0-.72,1.85A2.52,2.52,0,0,0,171.44,15.92Z"/></g></g></svg>