<svg xmlns="http://www.w3.org/2000/svg" viewBox="0 0 37.78 37.78"><defs><style>.cls-1{fill:#fff;}</style></defs><title>Asset 6</title><g id="Layer_2" data-name="Layer 2"><g id="Layer_1-2" data-name="Layer 1"><path class="cls-1" d="M2.1,27.28A2.1,2.1,0,0,0,0,29.38v3.36a5.09,5.09,0,0,0,5.25,5H32.53a5.1,5.1,0,0,0,5.25-5V29.38a2.1,2.1,0,0,0-4.2,0v3.36c0,.82-.94.84-1,.84H5.25c-.11,0-1,0-1-.84V29.38a2.1,2.1,0,0,0-2.1-2.1M20.37,28.9,31,18.27a2.09,2.09,0,0,0,0-3,2.19,2.19,0,0,0-3,0l-7,6.91V2.1a2.1,2.1,0,1,0-4.2,0V22.48l-7-7a2.05,2.05,0,0,0-2.93,0,2.1,2.1,0,0,0,0,3L17.4,28.9a2.1,2.1,0,0,0,3,0"/></g></g></svg>