<svg xmlns="http://www.w3.org/2000/svg" xmlns:xlink="http://www.w3.org/1999/xlink" viewBox="0 0 184.19 27.28"><defs><style>.cls-1{fill:none;}.cls-2{fill:#fff;}.cls-3{fill:#00988a;}.cls-4{clip-path:url(#clip-path);}.cls-5{fill:url(#radial-gradient);}</style><clipPath id="clip-path"><path class="cls-1" d="M8.36,2.27A4.71,4.71,0,0,0,3.6,6.94v13.4A4.72,4.72,0,0,0,8.36,25H22a4.73,4.73,0,0,0,4.77-4.67V6.94A4.72,4.72,0,0,0,22,2.27Z"/></clipPath><radialGradient id="radial-gradient" cx="110.57" cy="-1824.48" r="1.24" gradientTransform="matrix(24.87, 0, 0, -24.37, -2739.73, -44434.07)" gradientUnits="userSpaceOnUse"><stop offset="0" stop-color="#ffda78"/><stop offset="0.1" stop-color="#ffda78"/><stop offset="0.15" stop-color="#fccd74"/><stop offset="0.25" stop-color="#f4ab6a"/><stop offset="0.39" stop-color="#e77459"/><stop offset="0.45" stop-color="#e05851"/><stop offset="0.68" stop-color="#cd2c87"/><stop offset="1" stop-color="#6a64a9"/></radialGradient></defs><title>intagram</title><g id="Layer_2" data-name="Layer 2"><g id="Layer_1-2" data-name="Layer 1"><path class="cls-2" d="M7.09,0S0,0,0,7V20.33s0,7,7.09,7h170s7.09,0,7.09-7V7S184.19,0,177.1,0H7.09"/><path class="cls-3" d="M35.86,8.06h1.55L33.19,20.51H31.64Z"/><path class="cls-3" d="M37.69,11.51h1.55v1.27h0a3.06,3.06,0,0,1,2.85-1.48A2.65,2.65,0,0,1,44.68,13a3.21,3.21,0,0,1,2.78-1.71c2.29,0,3.12,1.45,3.12,3.36V20.3H48.92V15.06c0-1.09-.26-2.45-1.6-2.45-1.69,0-2.36,1.62-2.36,3.26V20.3H43.31V15.06c0-1.09-.27-2.45-1.6-2.45-1.69,0-2.36,1.62-2.36,3.26V20.3H37.69Z"/><path class="cls-3" d="M54.66,9.54H52.8V7.72h1.86Zm-1.76,2h1.66V20.3H52.9Z"/><path class="cls-3" d="M56.92,11.51h1.6V12.9h0a3.25,3.25,0,0,1,2.94-1.6c2.33,0,3.36,1.41,3.36,3.78V20.3H63.2V15.75c0-2.05-.46-3.05-1.9-3.14-1.88,0-2.73,1.48-2.73,3.62V20.3H56.92Z"/><path class="cls-3" d="M66.34,18.58a4.51,4.51,0,0,0,2.06.62c.75,0,1.68-.31,1.68-1.26,0-1.61-3.88-1.47-3.88-3.93,0-1.83,1.39-2.71,3.16-2.71a7,7,0,0,1,2.06.35l-.14,1.41a5,5,0,0,0-1.74-.45c-.85,0-1.58.35-1.58,1.07,0,1.79,3.88,1.28,3.88,4.09,0,1.87-1.53,2.74-3.13,2.74A5.22,5.22,0,0,1,66.25,20Z"/><path class="cls-3" d="M73.61,12.13a5.8,5.8,0,0,1,3-.83c2.57,0,3.61,1.24,3.61,3.64v3.64a12.66,12.66,0,0,0,.07,1.72H78.69V19.16h0a3.35,3.35,0,0,1-2.78,1.35c-1.94,0-3.29-.83-3.29-2.74,0-2.21,2.46-2.9,4.17-2.9.65,0,1.11,0,1.76,0,0-1.51-.57-2.29-2.22-2.29a4.31,4.31,0,0,0-2.61.9Zm4.91,4c-.36,0-.71,0-1.06,0-.9,0-3.11.13-3.11,1.69A1.57,1.57,0,0,0,76,19.2a2.25,2.25,0,0,0,2.5-2.31Z"/><path class="cls-3" d="M90.24,20.3h-1.6V18.9h0a3.24,3.24,0,0,1-2.94,1.61c-2.32,0-3.36-1.42-3.36-3.78V11.51H84v4.55c0,2.05.46,3.05,1.9,3.14,1.88,0,2.73-1.49,2.73-3.62V11.51h1.65Z"/><path class="cls-3" d="M98.76,19.06h0a3.67,3.67,0,0,1-3.07,1.45c-2.71,0-3.85-2.36-3.85-4.76s1.27-4.45,3.87-4.45a3.21,3.21,0,0,1,3,1.41h0V7.37h1.65V20.3H98.76Zm-2.71.14c1.87,0,2.64-1.81,2.64-3.28,0-1.64-.86-3.31-2.66-3.31s-2.5,1.66-2.46,3.26C93.53,17.25,94.27,19.2,96.05,19.2Z"/><path class="cls-3" d="M109.39,19.94a7,7,0,0,1-2.83.57c-3.18,0-4.65-1.9-4.65-4.76a4.13,4.13,0,0,1,4.21-4.45c3,0,4,2.14,4,5h-6.41a2.91,2.91,0,0,0,3,2.93,5.42,5.42,0,0,0,2.76-.88Zm-1.07-4.88a2.24,2.24,0,0,0-2.23-2.45,2.47,2.47,0,0,0-2.42,2.45Z"/><g class="cls-4"><rect class="cls-5" x="3.6" y="2.27" width="23.2" height="22.73"/></g><path class="cls-2" d="M18.56,5.07H11.84a5.33,5.33,0,0,0-5.39,5.28v6.58a5.33,5.33,0,0,0,5.39,5.28h6.72A5.34,5.34,0,0,0,24,16.93V10.35a5.34,5.34,0,0,0-5.39-5.28M22.27,16.3a4.31,4.31,0,0,1-4.36,4.27H12.48A4.31,4.31,0,0,1,8.13,16.3V11a4.31,4.31,0,0,1,4.35-4.27h5.43A4.31,4.31,0,0,1,22.27,11Z"/><path class="cls-2" d="M15.43,9.15A4.52,4.52,0,1,0,20,13.67a4.57,4.57,0,0,0-4.61-4.52m0,7.24a2.72,2.72,0,1,1,2.77-2.72,2.75,2.75,0,0,1-2.77,2.72"/><path class="cls-2" d="M20.89,9.08a1.17,1.17,0,1,1-1.17-1.15,1.15,1.15,0,0,1,1.17,1.15"/></g></g></svg>