<svg xmlns="http://www.w3.org/2000/svg" viewBox="0 0 184.19 27.28"><defs><style>.cls-1{fill:#fff;}.cls-2{fill:#00988a;}.cls-3{fill:#0077b4;}</style></defs><title>linkedin</title><g id="Layer_2" data-name="Layer 2"><g id="Layer_1-2" data-name="Layer 1"><path class="cls-1" d="M7.09,0S0,0,0,7V20.33s0,7,7.09,7h170s7.09,0,7.09-7V7S184.19,0,177.1,0H7.09"/><path class="cls-2" d="M35.86,8h1.55L33.19,20.4H31.64Z"/><path class="cls-2" d="M37.69,11.4h1.55v1.28h0a3,3,0,0,1,2.85-1.48,2.64,2.64,0,0,1,2.55,1.7,3.2,3.2,0,0,1,2.78-1.7c2.29,0,3.12,1.44,3.12,3.36v5.63H48.92V15c0-1.08-.26-2.44-1.6-2.44-1.69,0-2.36,1.62-2.36,3.25v4.43H43.31V15c0-1.08-.27-2.44-1.6-2.44-1.69,0-2.36,1.62-2.36,3.25v4.43H37.69Z"/><path class="cls-2" d="M54.66,9.44H52.8V7.61h1.86Zm-1.76,2h1.66v8.79H52.9Z"/><path class="cls-2" d="M56.92,11.4h1.6v1.4h0a3.25,3.25,0,0,1,2.94-1.6c2.33,0,3.36,1.41,3.36,3.77v5.22H63.2V15.64c0-2.05-.46-3.05-1.9-3.13-1.88,0-2.73,1.48-2.73,3.62v4.06H56.92Z"/><path class="cls-2" d="M69,9.44H67.11V7.61H69Zm-1.76,2h1.65v8.79H67.22Z"/><path class="cls-2" d="M70.56,18.47a4.51,4.51,0,0,0,2.06.62c.76,0,1.69-.31,1.69-1.26,0-1.6-3.89-1.46-3.89-3.93,0-1.83,1.39-2.7,3.17-2.7a7.11,7.11,0,0,1,2.06.34L75.51,13a5,5,0,0,0-1.75-.44c-.84,0-1.58.34-1.58,1.06,0,1.8,3.89,1.28,3.89,4.09,0,1.88-1.53,2.74-3.13,2.74a5.35,5.35,0,0,1-2.47-.48Z"/><path class="cls-2" d="M82.18,12.71H79.8v4.81a1.41,1.41,0,0,0,1.39,1.57,2.06,2.06,0,0,0,1.13-.31v1.38a5.43,5.43,0,0,1-1.41.24c-1.71,0-2.76-.79-2.76-2.55V12.71h-2V11.4h2v-2l1.65-.52V11.4h2.38Z"/><path class="cls-2" d="M90.47,19.83a7,7,0,0,1-2.84.57c-3.18,0-4.64-1.89-4.64-4.76A4.12,4.12,0,0,1,87.2,11.2c3,0,4,2.13,4,5h-6.4a2.91,2.91,0,0,0,3,2.93,5.36,5.36,0,0,0,2.76-.88ZM89.39,15a2.23,2.23,0,0,0-2.23-2.44A2.45,2.45,0,0,0,84.75,15Z"/><path class="cls-2" d="M92.71,11.4h1.55v1.36h0a2.73,2.73,0,0,1,2.34-1.56,4.7,4.7,0,0,1,1.09.12v1.44a2.48,2.48,0,0,0-.91-.15c-1.48,0-2.45,1.38-2.45,3.58v4H92.71Z"/><path class="cls-2" d="M100.86,9.44H99V7.61h1.87Zm-1.76,2h1.65v8.79H99.1Z"/><path class="cls-2" d="M107.09,11.2a4.37,4.37,0,0,1,4.55,4.6,4.57,4.57,0,1,1-9.13,0A4.38,4.38,0,0,1,107.09,11.2Zm0,7.89c1.93,0,2.8-1.72,2.8-3.29a2.85,2.85,0,1,0-5.62,0C104.27,17.37,105.13,19.09,107.09,19.09Z"/><path class="cls-2" d="M119.55,19h0a3.65,3.65,0,0,1-3.07,1.45c-2.71,0-3.85-2.36-3.85-4.76s1.27-4.44,3.87-4.44a3.21,3.21,0,0,1,3,1.41h0V7.26h1.65V20.19h-1.58Zm-2.71.14c1.87,0,2.64-1.81,2.64-3.27,0-1.64-.86-3.31-2.66-3.31s-2.5,1.65-2.46,3.25C114.32,17.14,115.06,19.09,116.84,19.09Z"/><path class="cls-2" d="M123.71,12a5.79,5.79,0,0,1,3-.82c2.57,0,3.61,1.24,3.61,3.63v3.64a14.61,14.61,0,0,0,.07,1.72h-1.55V19.06h0A3.37,3.37,0,0,1,126,20.4c-1.94,0-3.29-.83-3.29-2.74,0-2.21,2.46-2.9,4.17-2.9.65,0,1.11,0,1.76,0,0-1.52-.57-2.29-2.22-2.29a4.31,4.31,0,0,0-2.61.89Zm4.91,4c-.36,0-.71,0-1.06,0-.9,0-3.11.14-3.11,1.69a1.57,1.57,0,0,0,1.67,1.43,2.25,2.25,0,0,0,2.5-2.31Z"/><path class="cls-2" d="M131.73,18.47a4.58,4.58,0,0,0,2.06.62c.76,0,1.69-.31,1.69-1.26,0-1.6-3.89-1.46-3.89-3.93,0-1.83,1.39-2.7,3.17-2.7a7,7,0,0,1,2.06.34L136.68,13a5,5,0,0,0-1.74-.44c-.85,0-1.59.34-1.59,1.06,0,1.8,3.89,1.28,3.89,4.09,0,1.88-1.53,2.74-3.13,2.74a5.31,5.31,0,0,1-2.46-.48Z"/><path class="cls-2" d="M139,12a5.86,5.86,0,0,1,3-.82c2.57,0,3.61,1.24,3.61,3.63v3.64a12.55,12.55,0,0,0,.07,1.72h-1.55V19.06h0a3.34,3.34,0,0,1-2.78,1.34c-1.93,0-3.29-.83-3.29-2.74,0-2.21,2.47-2.9,4.17-2.9.66,0,1.11,0,1.76,0,0-1.52-.56-2.29-2.21-2.29a4.28,4.28,0,0,0-2.61.89Zm4.91,4c-.35,0-.7,0-1,0-.9,0-3.12.14-3.12,1.69a1.57,1.57,0,0,0,1.67,1.43,2.24,2.24,0,0,0,2.5-2.31Z"/><path class="cls-2" d="M155.64,20.19H154V18.8h0a3.24,3.24,0,0,1-2.94,1.6c-2.32,0-3.36-1.41-3.36-3.77V11.4h1.66V16c0,2.06.45,3.06,1.9,3.14,1.88,0,2.72-1.48,2.72-3.62V11.4h1.66Z"/><path class="cls-2" d="M164.14,19h0A3.62,3.62,0,0,1,161,20.4c-2.71,0-3.85-2.36-3.85-4.76s1.27-4.44,3.87-4.44a3.2,3.2,0,0,1,3,1.41h0V7.26h1.65V20.19h-1.58Zm-2.71.14c1.87,0,2.64-1.81,2.64-3.27,0-1.64-.86-3.31-2.66-3.31s-2.5,1.65-2.46,3.25C158.91,17.14,159.65,19.09,161.43,19.09Z"/><path class="cls-2" d="M174.75,19.83a6.85,6.85,0,0,1-2.83.57c-3.18,0-4.64-1.89-4.64-4.76a4.11,4.11,0,0,1,4.2-4.44c3,0,4,2.13,4,5H169a2.91,2.91,0,0,0,3,2.93,5.33,5.33,0,0,0,2.76-.88ZM173.68,15a2.23,2.23,0,0,0-2.23-2.44A2.45,2.45,0,0,0,169,15Z"/><rect class="cls-3" x="3.56" y="2.95" width="22.32" height="22.32" rx="2.6"/><path class="cls-1" d="M6.18,11.06H9.79V22.69H6.18ZM8,5.29A2.12,2.12,0,0,1,8,9.52,2.12,2.12,0,0,1,8,5.29"/><path class="cls-1" d="M12.06,11.06h3.49v1.59h0A3.75,3.75,0,0,1,19,10.78c3.65,0,4.34,2.4,4.34,5.53v6.38H19.73V17c0-1.34,0-3.09-1.87-3.09s-2.15,1.46-2.15,3v5.77H12.1V11.06Z"/></g></g></svg>