<svg xmlns="http://www.w3.org/2000/svg" viewBox="0 0 170 177.53"><defs><style>.cls-1{fill:#35383a;}.cls-2{fill:#c5943e;}.cls-3{fill:#17191a;}.cls-4{fill:#505254;}.cls-5{fill:#fff;}.cls-6{fill:#7493cb;}.cls-7{fill:#7d95cc;}.cls-8{fill:#8394ba;}.cls-9{fill:#51689a;}</style></defs><title>Asset 10</title><g id="Layer_2" data-name="Layer 2"><g id="Layer_1-2" data-name="Layer 1"><path class="cls-1" d="M134,165.75c26.23-.64,42.32-4.71,33.72-25.21s-30.12-34.18-30.12-34.18S152.91,97.3,152,96.47s-29.14-13.87-29.14-8.32c0,5.29,5.7,17.41,5.7,17.41l-10.1,10.78-13.68,49.41s20.4.22,29.2,0"/><path class="cls-2" d="M127.85,104.05c.42.32,8.66,2.38,12.1.87,0,0,1.21.85-.14,1.53,0,0,.85.2.09,1.56,0,0-8.9,1.82-12.76-1.11-.79-.6,1.14-.93.8-1.34-1.3-1.61-.09-1.51-.09-1.51"/><path class="cls-3" d="M152,96.47c3.25-1.59-22-18.89-28.46-10-3.64,5,7.92,8.65,16.7,10,2.47.39-1.25-3,.93-2.88,3.77.26,10.15,3.19,10.83,2.86"/><path class="cls-4" d="M105.8,172.2c33.75-.83,54.44-6.06,43.39-32.44s-38.76-44-38.76-44S130.19,84.13,129,83.06s-20.8-11-27.94-10.69S96.42,95.9,96.42,95.9L92.72,172s1.76.52,13.08.24"/><path class="cls-2" d="M99.65,92.7c.56.41,9.45,3.18,13.87,1.24,0,0,1.55,1.09-.17,2,0,0,1.09.26.11,2,0,0-8.75,3.09-13.71-.67s-.1-4.54-.1-4.54"/><path class="cls-3" d="M129,83.06c4.18-2-28.75-24.6-36.6-12.84C88,76.77,103.54,81.57,113.87,83.1c3.17.47-1.61-3.91,1.2-3.72,4.85.34,13.05,4.11,13.92,3.68"/><path class="cls-5" d="M10.55,62.7l8.56,105.61a9,9,0,0,0,8.68,9.22H88.57a9,9,0,0,0,8.68-9.22L105.8,62.7"/><path class="cls-6" d="M10.55,62.7l8.33,105.61c0,5.1,3.77,9.22,8.44,9.22H86.43c4.67,0,8.45-4.12,8.45-9.22L103.2,62.7"/><rect class="cls-5" y="46.55" width="116.62" height="11.54"/><rect class="cls-7" y="46.55" width="114.16" height="11.54"/><polygon class="cls-8" points="5.29 58.09 111.34 58.09 107.06 62.7 9.56 62.7 5.29 58.09"/><polygon class="cls-9" points="5.29 58.09 111.34 58.09 107.06 62.7 9.56 62.7 5.29 58.09"/><polygon class="cls-1" points="88.03 26.64 81.88 8.91 49.41 0 39.29 14.15 49.17 16.86 56.94 4.92 72.94 9.31 77.14 23.4 88.03 26.64"/><polygon class="cls-5" points="2.24 14.76 116.38 46.09 119.44 33.53 5.29 2.2 2.24 14.76"/><polygon class="cls-7" points="2.24 14.76 114.02 45.38 117.07 32.82 5.29 2.2 2.24 14.76"/><path class="cls-9" d="M79.92,170.5H85.1c.48,0,.87-.58.87-1.29L88.84,69.05c0-.71-.39-1.28-.87-1.28H82.79c-.48,0-.87.57-.87,1.28L79.05,169.21c0,.71.39,1.29.87,1.29"/><path class="cls-9" d="M62.5,170.5h5.19c.48,0,.87-.58.87-1.29l1-100.16c0-.71-.38-1.28-.86-1.28H63.46c-.48,0-.87.57-.87,1.28l-1,100.16c0,.71.38,1.29.86,1.29"/><path class="cls-9" d="M45.09,170.5h5.19c.48,0,.86-.58.86-1.29l-1-100.16c0-.71-.39-1.28-.87-1.28H44.13c-.48,0-.87.57-.87,1.28l1,100.16c0,.71.39,1.29.87,1.29"/><path class="cls-9" d="M27.67,170.5h5.19c.48,0,.87-.58.87-1.29L30.86,69.05c0-.71-.39-1.28-.87-1.28H24.8c-.47,0-.86.57-.86,1.28l2.87,100.16c0,.71.39,1.29.86,1.29"/></g></g></svg>