<svg xmlns="http://www.w3.org/2000/svg" xmlns:xlink="http://www.w3.org/1999/xlink" viewBox="0 0 179.16 130.34"><defs><style>.cls-1{fill:none;}.cls-2{isolation:isolate;}.cls-3{mix-blend-mode:multiply;}.cls-4{clip-path:url(#clip-path);}.cls-5{clip-path:url(#clip-path-2);}.cls-6{fill:#485980;}.cls-7{fill:#495880;}.cls-8{fill:#768cb4;}.cls-9{fill:#a8dce0;}.cls-10{clip-path:url(#clip-path-3);}.cls-11{clip-path:url(#clip-path-4);}.cls-12{clip-path:url(#clip-path-5);}.cls-13{clip-path:url(#clip-path-7);}.cls-14{clip-path:url(#clip-path-8);}.cls-15{clip-path:url(#clip-path-9);}.cls-16{clip-path:url(#clip-path-11);}.cls-17{clip-path:url(#clip-path-12);}.cls-18{clip-path:url(#clip-path-15);}.cls-19{clip-path:url(#clip-path-17);}.cls-20{clip-path:url(#clip-path-19);}.cls-21{clip-path:url(#clip-path-21);}.cls-22{clip-path:url(#clip-path-23);}.cls-23{clip-path:url(#clip-path-24);}.cls-24{clip-path:url(#clip-path-25);}.cls-25{clip-path:url(#clip-path-26);}.cls-26{clip-path:url(#clip-path-27);}.cls-27{clip-path:url(#clip-path-28);}</style><clipPath id="clip-path"><rect class="cls-1" x="87.87" y="59.12" width="52.02" height="11.34"/></clipPath><clipPath id="clip-path-2"><rect class="cls-1" x="87.87" y="59.12" width="52.02" height="11.33"/></clipPath><clipPath id="clip-path-3"><rect class="cls-1" x="79.03" y="58.08" width="58.51" height="24"/></clipPath><clipPath id="clip-path-4"><rect class="cls-1" x="79.03" y="58.08" width="58.51" height="24"/></clipPath><clipPath id="clip-path-5"><rect class="cls-1" x="73.14" y="96.97" width="52.02" height="11.34"/></clipPath><clipPath id="clip-path-7"><rect class="cls-1" x="73.42" y="106.18" width="52.02" height="11.34"/></clipPath><clipPath id="clip-path-8"><rect class="cls-1" x="73.42" y="106.18" width="52.02" height="11.34"/></clipPath><clipPath id="clip-path-9"><rect class="cls-1" x="72.68" y="115.41" width="52.02" height="11.34"/></clipPath><clipPath id="clip-path-11"><rect class="cls-1" x="93.75" y="20.23" width="58.51" height="24"/></clipPath><clipPath id="clip-path-12"><rect class="cls-1" x="93.75" y="20.23" width="58.5" height="24"/></clipPath><clipPath id="clip-path-15"><rect class="cls-1" x="88.14" y="68.33" width="52.02" height="11.34"/></clipPath><clipPath id="clip-path-17"><rect class="cls-1" x="87.4" y="77.57" width="52.02" height="11.34"/></clipPath><clipPath id="clip-path-19"><rect class="cls-1" x="57.39" y="49.4" width="37.54" height="71.68"/></clipPath><clipPath id="clip-path-21"><rect class="cls-1" x="15.97" y="24.92" width="32.49" height="54.26"/></clipPath><clipPath id="clip-path-23"><rect class="cls-1" x="44.28" y="49.9" width="28.36" height="44.72"/></clipPath><clipPath id="clip-path-24"><rect class="cls-1" x="44.28" y="49.9" width="28.36" height="44.72"/></clipPath><clipPath id="clip-path-25"><rect class="cls-1" x="52.94" y="53.03" width="28.36" height="44.72"/></clipPath><clipPath id="clip-path-26"><rect class="cls-1" x="52.94" y="53.03" width="28.36" height="44.72"/></clipPath><clipPath id="clip-path-27"><rect class="cls-1" x="61.26" y="57.12" width="28.36" height="44.72"/></clipPath><clipPath id="clip-path-28"><rect class="cls-1" x="61.26" y="57.12" width="28.36" height="44.72"/></clipPath></defs><title>Asset 9</title><g class="cls-2"><g id="Layer_2" data-name="Layer 2"><g id="Layer_1-2" data-name="Layer 1"><g class="cls-3"><g class="cls-4"><g class="cls-5"><path class="cls-6" d="M139.89,69c-1.29-.38-2.56-.79-3.83-1.21l-3.8-1.29h.48c-1.39.64-2.77,1.29-4.16,1.9l-4.18,1.84-.44.2-.47-.26c-2.32-1.3-4.66-2.56-6.95-3.9l1,.08L114,67.84c-1.2.49-2.42.94-3.62,1.41l-.61.24-.53-.37c-1.2-.86-2.42-1.71-3.61-2.59L102,63.9l.88.15c-1.43.35-2.86.65-4.29,1s-2.86.62-4.3.92l-.41.09-.24-.26c-1-1.08-2-2.19-2.93-3.29s-1.92-2.23-2.85-3.37C89,60,90.15,61,91.28,61.93s2.23,1.9,3.32,2.88L94,64.64c1.4-.45,2.79-.91,4.19-1.34s2.8-.87,4.21-1.28l.44-.13.43.28,3.71,2.47c1.23.82,2.45,1.67,3.67,2.51L109.47,67c1.2-.48,2.4-1,3.61-1.45l3.62-1.4.55-.21.49.29c2.29,1.34,4.53,2.77,6.8,4.15l-.91-.07,4.31-1.52c1.44-.5,2.89-1,4.33-1.46l.28-.1.2.1,3.59,1.79c1.19.61,2.37,1.24,3.55,1.88"/></g></g></g><path class="cls-7" d="M162.78,107.48a1.08,1.08,0,0,0,0-.18h.05l1.6-34.1L52.11,67.6l-1.67,34.49c-.67,14,23.93,26.61,55,28.1s56.72-8.68,57.39-22.71"/><path class="cls-8" d="M107,96.11C76,94.62,51.41,82,52.08,68s26.37-24.2,57.39-22.71,55.62,14.08,54.95,28.11S138.05,97.6,107,96.11"/><path class="cls-9" d="M107.59,84.36C89.4,83.49,75,76.38,75.34,68.5S90.77,54.93,109,55.8s32.63,8,32.25,15.86-15.43,13.57-33.63,12.7"/><g class="cls-3"><g class="cls-10"><g class="cls-11"><path class="cls-9" d="M107.71,82c-16.15-.78-29-6.74-28.68-13.32S92.7,57.39,108.85,58.16s29,6.74,28.67,13.32S123.86,82.77,107.71,82"/></g></g></g><path class="cls-9" d="M107.76,81c-8.86-.43-15.91-3.7-15.73-7.31s7.5-6.2,16.36-5.77,15.9,3.7,15.72,7.31-7.49,6.19-16.35,5.77"/><g class="cls-3"><g class="cls-12"><g class="cls-12"><path class="cls-6" d="M125.16,106.87c-1.28-.39-2.56-.79-3.83-1.21l-3.79-1.29H118c-1.38.63-2.76,1.28-4.16,1.9l-4.18,1.84-.44.19-.47-.26c-2.31-1.3-4.65-2.55-6.94-3.89l1,.08-3.6,1.46c-1.2.49-2.41.94-3.62,1.41l-.61.24L94.5,107c-1.21-.87-2.43-1.71-3.62-2.59l-3.59-2.63.87.15c-1.42.34-2.85.65-4.28,1s-2.87.62-4.3.92l-.42.09-.24-.26c-1-1.08-2-2.2-2.92-3.29S74.08,98.11,73.14,97c1.16.92,2.29,1.86,3.41,2.8s2.24,1.91,3.33,2.89l-.65-.17c1.39-.45,2.78-.92,4.19-1.34s2.79-.87,4.2-1.28l.45-.13.43.28,3.7,2.46c1.24.82,2.45,1.68,3.68,2.52l-1.13-.14c1.2-.48,2.39-1,3.6-1.44L102,102l.54-.21.5.29c2.29,1.34,4.53,2.77,6.79,4.16l-.9-.07,4.31-1.52c1.43-.51,2.88-1,4.33-1.47l.28-.09.2.1,3.58,1.79c1.19.61,2.38,1.24,3.55,1.88"/></g></g></g><g class="cls-3"><g class="cls-13"><g class="cls-14"><path class="cls-6" d="M125.44,116.08c-1.29-.39-2.56-.79-3.83-1.21l-3.8-1.3h.48c-1.39.63-2.77,1.28-4.16,1.89L110,117.32l-.45.19-.46-.26c-2.32-1.3-4.66-2.55-7-3.9l1,.08-3.6,1.46c-1.2.49-2.42.94-3.62,1.42l-.61.24-.53-.38c-1.2-.86-2.42-1.7-3.62-2.58L87.56,111l.88.16c-1.43.34-2.86.65-4.29,1s-2.86.62-4.3.92l-.41.09-.24-.26c-1-1.08-2-2.19-2.93-3.29s-1.92-2.23-2.85-3.36c1.15.91,2.28,1.85,3.4,2.8s2.24,1.91,3.33,2.89l-.65-.18c1.4-.45,2.79-.91,4.19-1.33s2.8-.88,4.2-1.29l.45-.13.43.29,3.71,2.46c1.23.82,2.45,1.68,3.67,2.51L95,114.07c1.2-.48,2.4-1,3.61-1.45l3.62-1.4.55-.21.49.29c2.29,1.34,4.53,2.77,6.8,4.15l-.91-.07,4.31-1.52c1.44-.5,2.89-1,4.33-1.46l.28-.1.2.1,3.59,1.8c1.18.61,2.37,1.23,3.55,1.88"/></g></g></g><g class="cls-3"><g class="cls-15"><g class="cls-15"><path class="cls-6" d="M124.7,125.31c-1.29-.38-2.57-.79-3.84-1.21l-3.79-1.29h.48c-1.39.64-2.77,1.29-4.16,1.9l-4.19,1.85-.44.19-.46-.26c-2.32-1.3-4.66-2.56-7-3.9l1,.08-3.6,1.46c-1.2.49-2.42.94-3.62,1.42l-.62.23-.52-.37c-1.2-.86-2.42-1.71-3.62-2.58l-3.59-2.64.88.15c-1.43.35-2.86.65-4.29,1s-2.87.62-4.3.92l-.41.09-.24-.26c-1-1.08-1.95-2.19-2.93-3.29s-1.92-2.23-2.85-3.37q1.72,1.38,3.4,2.81c1.11,1,2.24,1.9,3.33,2.88l-.65-.17c1.4-.45,2.79-.91,4.19-1.34s2.8-.87,4.2-1.28l.45-.13.43.29,3.71,2.46c1.23.82,2.45,1.67,3.67,2.51l-1.13-.13c1.2-.48,2.4-1,3.61-1.45l3.62-1.4.54-.21.5.29c2.29,1.34,4.53,2.77,6.8,4.15l-.91-.07,4.31-1.52c1.44-.5,2.89-1,4.33-1.46l.28-.1.2.1,3.58,1.8c1.2.61,2.38,1.23,3.56,1.87"/></g></g></g><path class="cls-7" d="M177.51,69.63a1.08,1.08,0,0,1,0-.18h.05l1.59-34.1L66.83,29.75,65.17,64.24c-.68,14,23.93,26.62,55,28.11s56.71-8.68,57.39-22.72"/><path class="cls-8" d="M121.75,58.26c-31-1.49-55.62-14.07-54.95-28.1S93.17,6,124.19,7.45s55.63,14.07,54.95,28.1-26.37,24.2-57.39,22.71"/><path class="cls-9" d="M122.32,46.51c-18.19-.87-32.63-8-32.26-15.86S105.5,17.08,123.69,18s32.63,8,32.25,15.86-15.43,13.57-33.62,12.69"/><g class="cls-3"><g class="cls-16"><g class="cls-17"><path class="cls-9" d="M122.43,44.15c-16.15-.77-29-6.74-28.67-13.32s13.66-11.29,29.82-10.51,29,6.74,28.67,13.32-13.67,11.29-29.82,10.51"/></g></g></g><path class="cls-9" d="M122.48,43.1c-8.86-.43-15.9-3.7-15.73-7.31s7.5-6.19,16.36-5.77,15.9,3.7,15.73,7.31-7.5,6.2-16.36,5.77"/><g class="cls-3"><g class="cls-4"><g class="cls-5"><path class="cls-6" d="M139.89,69c-1.29-.38-2.56-.79-3.83-1.21l-3.8-1.29h.48c-1.39.64-2.77,1.29-4.16,1.9l-4.18,1.84-.44.2-.47-.26c-2.32-1.3-4.66-2.56-6.95-3.9l1,.08L114,67.84c-1.2.49-2.42.94-3.62,1.41l-.61.24-.53-.37c-1.2-.86-2.42-1.71-3.61-2.59L102,63.9l.88.15c-1.43.35-2.86.65-4.29,1s-2.86.62-4.3.92l-.41.09-.24-.26c-1-1.08-2-2.19-2.93-3.29s-1.92-2.23-2.85-3.37C89,60,90.15,61,91.28,61.93s2.23,1.9,3.32,2.88L94,64.64c1.4-.45,2.79-.91,4.19-1.34s2.8-.87,4.21-1.28l.44-.13.43.28,3.71,2.47c1.23.82,2.45,1.67,3.67,2.51L109.47,67c1.2-.48,2.4-1,3.61-1.45l3.62-1.4.55-.21.49.29c2.29,1.34,4.53,2.77,6.8,4.15l-.91-.07,4.31-1.52c1.44-.5,2.89-1,4.33-1.46l.28-.1.2.1,3.59,1.79c1.19.61,2.37,1.24,3.55,1.88"/></g></g></g><g class="cls-3"><g class="cls-18"><g class="cls-18"><path class="cls-6" d="M140.16,78.23c-1.28-.39-2.56-.79-3.83-1.21l-3.8-1.29H133c-1.39.63-2.77,1.28-4.16,1.9l-4.18,1.84-.44.19-.47-.26c-2.32-1.3-4.66-2.55-7-3.89l1,.08-3.6,1.46c-1.2.49-2.41.94-3.62,1.41l-.61.24-.52-.37c-1.21-.87-2.43-1.71-3.62-2.59l-3.59-2.63.87.15c-1.42.34-2.86.65-4.29,1s-2.86.61-4.3.92l-.41.09L93.93,75c-1-1.08-2-2.2-2.94-3.29s-1.91-2.23-2.85-3.37c1.16.92,2.29,1.86,3.41,2.8S93.79,73,94.88,74l-.65-.17c1.39-.45,2.78-.92,4.19-1.34s2.79-.87,4.2-1.28l.44-.13.43.28,3.71,2.46c1.24.83,2.45,1.68,3.68,2.52l-1.14-.14c1.21-.48,2.4-1,3.61-1.44L117,73.37l.54-.21.49.29c2.3,1.34,4.54,2.77,6.8,4.16l-.91-.07L128.21,76c1.44-.51,2.89-1,4.34-1.47l.27-.09.2.1,3.59,1.79c1.19.61,2.37,1.24,3.55,1.88"/></g></g></g><g class="cls-3"><g class="cls-19"><g class="cls-19"><path class="cls-6" d="M139.42,87.47c-1.29-.39-2.56-.79-3.83-1.21l-3.8-1.3h.48c-1.39.63-2.77,1.28-4.16,1.9l-4.18,1.84-.44.19-.47-.26c-2.32-1.3-4.66-2.55-7-3.89l1,.08-3.6,1.45c-1.2.49-2.41,1-3.62,1.42l-.61.24-.52-.37c-1.21-.87-2.43-1.71-3.62-2.59l-3.59-2.64.87.16c-1.42.34-2.86.65-4.29,1s-2.86.62-4.3.93l-.41.08-.24-.26c-1-1.07-2-2.19-2.93-3.28s-1.91-2.23-2.85-3.37c1.15.91,2.29,1.86,3.41,2.8s2.23,1.91,3.32,2.89l-.64-.17c1.39-.45,2.78-.92,4.18-1.34s2.8-.88,4.21-1.29l.44-.12.43.28,3.71,2.46c1.24.82,2.45,1.68,3.68,2.51L109,85.46c1.21-.48,2.4-1,3.61-1.45l3.62-1.4.55-.21.49.29c2.29,1.34,4.54,2.77,6.8,4.16l-.91-.07,4.31-1.53c1.44-.5,2.89-1,4.34-1.46l.27-.09.2.1,3.59,1.79c1.19.61,2.37,1.23,3.55,1.88"/></g></g></g><g class="cls-3"><g class="cls-20"><g class="cls-20"><path class="cls-6" d="M67.12,121.08l-9.73-6.23a26,26,0,0,0,4.81,3.83c2.3,1.28,4.92,2.4,4.92,2.4L84.82,93l5.7-5.9s5.38-23.23,4.24-33.21h0l-37.37,61"/></g></g></g><path class="cls-7" d="M87.06,15.14l-.17-.06,0-.05L55.79,1,9.23,103.36l31.45,14.25C53.48,123.4,74.24,105.16,87,76.86s12.82-55.92,0-61.72"/><path class="cls-8" d="M56,62.79c-12.81,28.3-33.57,46.54-46.37,40.75s-12.79-33.43,0-61.72S43.17-4.72,56,1.07,68.76,34.5,56,62.79"/><path class="cls-9" d="M45.24,57.94c-7.51,16.6-19.43,27.41-26.62,24.15s-6.94-19.34.57-35.94S38.62,18.75,45.82,22s6.93,19.35-.58,35.94"/><g class="cls-3"><g class="cls-21"><g class="cls-21"><path class="cls-9" d="M43.09,57c-6.67,14.73-16.94,24.47-23,21.75s-5.46-16.86,1.21-31.59S38.29,22.66,44.29,25.37s5.46,16.87-1.2,31.6"/></g></g></g><path class="cls-9" d="M42.13,56.53C38.47,64.62,32.83,70,29.54,68.47s-3-9.25.66-17.34S39.49,37.71,42.79,39.2s3,9.25-.66,17.33"/><g class="cls-3"><g class="cls-22"><g class="cls-23"><path class="cls-6" d="M72.64,49.9C71.81,51,71,52,70.1,53l-2.6,3.05.18-.44c.08,1.52.18,3.05.24,4.57l.17,4.57,0,.48-.42.34c-2.06,1.67-4.09,3.39-6.18,5l.46-.94,0,3.89c0,1.3,0,2.59,0,3.89v.65l-.54.35c-1.25.8-2.48,1.63-3.74,2.42l-3.77,2.36.46-.75c-.2,1.45-.44,2.89-.67,4.34s-.48,2.89-.72,4.34l-.07.41-.33.13c-1.37.53-2.76,1-4.14,1.51s-2.78,1-4.18,1.41c1.28-.73,2.57-1.44,3.86-2.13s2.6-1.38,3.91-2l-.4.54c.1-1.46.17-2.93.3-4.39s.22-2.92.35-4.38l.05-.46.42-.29,3.66-2.54c1.21-.85,2.46-1.67,3.68-2.5l-.54,1c0-1.3,0-2.59,0-3.89l0-3.89v-.58l.45-.35c2.09-1.64,4.25-3.2,6.37-4.79l-.4.82.17-4.57c.06-1.52.16-3,.23-4.57l0-.29.17-.15,3-2.67q1.52-1.34,3.06-2.61"/></g></g></g><g class="cls-3"><g class="cls-24"><g class="cls-25"><path class="cls-6" d="M81.3,53c-.83,1-1.68,2.09-2.54,3.12l-2.6,3.05.18-.44c.08,1.52.18,3,.24,4.57l.17,4.56,0,.48-.42.34c-2.06,1.68-4.09,3.39-6.18,5l.46-.94,0,3.89c0,1.29,0,2.59,0,3.88v.66l-.54.35c-1.25.8-2.48,1.62-3.74,2.41l-3.77,2.37.46-.76c-.2,1.45-.44,2.9-.67,4.35s-.47,2.89-.72,4.33l-.07.42-.33.13c-1.37.52-2.76,1-4.14,1.51s-2.78,1-4.18,1.41c1.28-.73,2.57-1.44,3.86-2.13s2.6-1.38,3.91-2l-.4.55c.1-1.47.17-2.93.3-4.39s.22-2.92.35-4.38l0-.47.42-.29,3.66-2.54c1.21-.85,2.46-1.66,3.68-2.49l-.54,1c0-1.29,0-2.59,0-3.88l0-3.89v-.58l.45-.36c2.09-1.63,4.25-3.19,6.37-4.79l-.4.82.17-4.56c.06-1.53.16-3,.23-4.57l0-.3.17-.14,3-2.68c1-.88,2-1.75,3-2.61"/></g></g></g><g class="cls-3"><g class="cls-26"><g class="cls-27"><path class="cls-6" d="M89.61,57.12c-.83,1.06-1.67,2.09-2.53,3.12l-2.6,3,.18-.44c.08,1.52.17,3,.23,4.57L85.06,72l0,.48-.41.34c-2.06,1.68-4.09,3.39-6.18,5l.45-.94,0,3.89c0,1.29,0,2.59,0,3.88v.66l-.54.34c-1.25.81-2.48,1.63-3.74,2.42l-3.77,2.37.46-.76c-.2,1.45-.45,2.9-.67,4.35s-.48,2.89-.73,4.34l-.07.41-.33.13c-1.36.52-2.75,1-4.13,1.51s-2.78,1-4.18,1.41c1.28-.73,2.56-1.44,3.86-2.13s2.59-1.38,3.91-2l-.4.54c.09-1.47.17-2.93.3-4.39s.21-2.92.35-4.38l0-.46.43-.3,3.65-2.54c1.22-.85,2.46-1.66,3.69-2.49l-.54,1c0-1.29,0-2.59,0-3.88l0-3.89v-.58L77,76c2.09-1.63,4.24-3.19,6.36-4.79L83,72l.17-4.56c.06-1.53.16-3,.23-4.57l0-.3.16-.14,3-2.68c1-.88,2-1.75,3-2.61"/></g></g></g></g></g></g></svg>