<svg xmlns="http://www.w3.org/2000/svg" viewBox="0 0 184.19 27.28"><defs><style>.cls-1{fill:#fff;}.cls-2{fill:#4a9bd5;}.cls-3{fill:#00988a;}</style></defs><title>twitter</title><g id="Layer_2" data-name="Layer 2"><g id="Layer_1-2" data-name="Layer 1"><path class="cls-1" d="M7.09,0S0,0,0,7V20.32s0,7,7.09,7h170s7.09,0,7.09-7V7S184.19,0,177.1,0H7.09"/><path class="cls-2" d="M26.8,20.34A4.72,4.72,0,0,1,22,25H8.36A4.71,4.71,0,0,1,3.6,20.34V6.94A4.71,4.71,0,0,1,8.36,2.27H22A4.72,4.72,0,0,1,26.8,6.94Z"/><path class="cls-1" d="M12.43,20.23A9.28,9.28,0,0,0,21.87,11c0-.14,0-.28,0-.42a6.59,6.59,0,0,0,1.65-1.68,6.75,6.75,0,0,1-1.9.51A3.29,3.29,0,0,0,23.06,7.6a6.9,6.9,0,0,1-2.1.79,3.33,3.33,0,0,0-2.42-1,3.28,3.28,0,0,0-3.31,3.25,3.65,3.65,0,0,0,.08.74A9.48,9.48,0,0,1,8.48,8,3.15,3.15,0,0,0,8,9.59a3.22,3.22,0,0,0,1.47,2.7A3.33,3.33,0,0,1,8,11.88v0a3.26,3.26,0,0,0,2.66,3.18,3.58,3.58,0,0,1-.87.11,3.28,3.28,0,0,1-.63-.06,3.32,3.32,0,0,0,3.1,2.26,6.73,6.73,0,0,1-4.12,1.39,5.24,5.24,0,0,1-.79,0,9.47,9.47,0,0,0,5.08,1.47"/><path class="cls-3" d="M35.86,6.61h1.55L33.19,19.05H31.64Z"/><path class="cls-3" d="M37.71,10.05h1.55v1.28h0a3,3,0,0,1,2.85-1.48,2.66,2.66,0,0,1,2.55,1.7,3.21,3.21,0,0,1,2.78-1.7c2.29,0,3.11,1.45,3.11,3.36v5.64H48.94V13.61c0-1.09-.26-2.45-1.6-2.45-1.69,0-2.36,1.62-2.36,3.26v4.43H43.33V13.61c0-1.09-.27-2.45-1.61-2.45-1.69,0-2.35,1.62-2.35,3.26v4.43H37.71Z"/><path class="cls-3" d="M54.7,8.09H52.83V6.26H54.7Zm-1.76,2h1.65v8.8H52.94Z"/><path class="cls-3" d="M57,10.05h1.6v1.4h0a3.24,3.24,0,0,1,2.94-1.6c2.32,0,3.36,1.41,3.36,3.77v5.23H63.25V14.29c0-2-.45-3-1.9-3.13-1.88,0-2.73,1.48-2.73,3.62v4.07H57Z"/><path class="cls-3" d="M66.41,17.12a4.39,4.39,0,0,0,2.06.62c.75,0,1.68-.31,1.68-1.26,0-1.6-3.88-1.46-3.88-3.93,0-1.82,1.39-2.7,3.16-2.7a7,7,0,0,1,2.06.34l-.14,1.42a4.77,4.77,0,0,0-1.74-.45c-.84,0-1.58.34-1.58,1.07,0,1.79,3.88,1.27,3.88,4.08,0,1.88-1.53,2.74-3.13,2.74a5.21,5.21,0,0,1-2.46-.48Z"/><path class="cls-3" d="M73.69,10.67a5.86,5.86,0,0,1,3-.82c2.57,0,3.61,1.24,3.61,3.63v3.64a12.85,12.85,0,0,0,.07,1.73H78.78V17.71h0A3.34,3.34,0,0,1,76,19.05c-1.93,0-3.29-.82-3.29-2.74,0-2.21,2.47-2.89,4.17-2.89.65,0,1.11,0,1.76,0,0-1.52-.56-2.29-2.21-2.29a4.28,4.28,0,0,0-2.61.89Zm4.91,4c-.35,0-.7,0-1,0-.9,0-3.12.14-3.12,1.69a1.57,1.57,0,0,0,1.67,1.43,2.24,2.24,0,0,0,2.5-2.31Z"/><path class="cls-3" d="M90.34,18.85h-1.6v-1.4h0a3.24,3.24,0,0,1-2.94,1.6c-2.32,0-3.36-1.41-3.36-3.77V10.05h1.65v4.56c0,2.05.46,3.05,1.9,3.13,1.89,0,2.73-1.48,2.73-3.62V10.05h1.65Z"/><path class="cls-3" d="M98.87,17.6h0a3.61,3.61,0,0,1-3.06,1.45c-2.71,0-3.86-2.36-3.86-4.76s1.27-4.44,3.88-4.44a3.22,3.22,0,0,1,3,1.41h0V5.92h1.65V18.85H98.87Zm-2.71.14c1.86,0,2.64-1.81,2.64-3.27,0-1.64-.87-3.31-2.66-3.31s-2.5,1.65-2.47,3.26C93.64,15.79,94.38,17.74,96.16,17.74Z"/><path class="cls-3" d="M109.5,18.48a7,7,0,0,1-2.84.57c-3.18,0-4.64-1.89-4.64-4.76a4.12,4.12,0,0,1,4.21-4.44c3,0,4,2.13,4,5h-6.4a2.91,2.91,0,0,0,3,2.93,5.36,5.36,0,0,0,2.76-.88Zm-1.08-4.87a2.23,2.23,0,0,0-2.23-2.45,2.45,2.45,0,0,0-2.41,2.45Z"/></g></g></svg>