<svg xmlns="http://www.w3.org/2000/svg" viewBox="0 0 117.57 216.4"><defs><style>.cls-1{fill:#19b9ab;}.cls-2{fill:#0095a1;}.cls-3{fill:#252859;}.cls-4{fill:#fff;}.cls-5{fill:#ffc53f;}.cls-6{fill:#da5e79;}.cls-7{fill:#462500;}.cls-8{fill:#202556;}</style></defs><title>Asset 8</title><g id="Layer_2" data-name="Layer 2"><g id="Layer_1-2" data-name="Layer 1"><path class="cls-1" d="M60.31,45.89C51.92,28.13,21.07,3.58,17,.37,21.9,10.72,44,58.13,47.7,86l.52-.07c8.26-2.06,21.1-20.95,12.09-40"/><path class="cls-2" d="M16.49,0S6.75,45.45,14.27,67.73C21.21,88.26,44.13,86.37,47.7,86,44,58.13,21.9,10.72,17,.37L16.49,0"/><path class="cls-1" d="M117.19,70.64l.38-.73c-9.9,4.28-30.55.44-42.2,5.75-11,5-9.31,18.79-9.07,20.4a177.73,177.73,0,0,1,17.3-7.17,136.92,136.92,0,0,0,33.59-18.25"/><path class="cls-2" d="M96.27,100.66c8.16-5.55,18.88-26,20.92-30A136.92,136.92,0,0,1,83.6,88.89a178.81,178.81,0,0,0-17.3,7.17l0,.16c6.19,9.7,20.53,10.84,29.94,4.44"/><path class="cls-1" d="M17.5,105.6,18,106l21,2.58c2.4-14.12-21.47-3-21.47-3"/><path class="cls-2" d="M38.86,109.43c.07-.3.06-.53.11-.81L18,106c2.89,2.47,18.2,14.88,20.84,3.39"/><path class="cls-3" d="M51.81,124.42s-5.08-53.3-20.73-92.07c0,0,20,38.45,25.26,92.07Z"/><path class="cls-3" d="M51.81,106.72A180.11,180.11,0,0,1,96.28,84s-26.51,7-45.42,19Z"/><polygon class="cls-3" points="53.05 112.85 32.26 107.82 53.05 110.33 53.05 112.85"/><path class="cls-4" d="M92.54,138.37c0,12.88-18.23,23.32-40.73,23.32s-40.73-10.44-40.73-23.32,18.23-23.32,40.73-23.32,40.73,10.44,40.73,23.32"/><path class="cls-5" d="M92.54,138.86c0,12.61-17.11,22.83-38.22,22.83S16.1,151.47,16.1,138.86,33.21,116,54.32,116s38.22,10.22,38.22,22.83"/><polygon class="cls-6" points="84.46 205.07 19.15 205.07 11.03 145.78 92.59 145.78 84.46 205.07"/><polygon class="cls-7" points="12.16 154.08 90.41 161.69 92.59 145.78 11.03 145.78 12.16 154.08"/><rect class="cls-6" y="127.47" width="103.62" height="21.8"/><polygon class="cls-8" points="89.33 216.4 14.29 216.4 10.23 201.58 93.39 201.58 89.33 216.4"/></g></g></svg>