<svg xmlns="http://www.w3.org/2000/svg" xmlns:xlink="http://www.w3.org/1999/xlink" viewBox="0 0 184.19 27.28"><defs><style>.cls-1{fill:none;}.cls-2{fill:#fff;}.cls-3{clip-path:url(#clip-path);}.cls-4{fill:url(#radial-gradient);}.cls-5{clip-path:url(#clip-path-2);}.cls-6{fill:url(#radial-gradient-2);}.cls-7{fill:#00988a;}</style><clipPath id="clip-path"><path class="cls-1" d="M8.36,2.27A4.71,4.71,0,0,0,3.6,6.94V20.33A4.72,4.72,0,0,0,8.36,25H22a4.73,4.73,0,0,0,4.77-4.68V6.94A4.72,4.72,0,0,0,22,2.27Z"/></clipPath><radialGradient id="radial-gradient" cx="-257.04" cy="-1852.73" r="1.24" gradientTransform="matrix(9.38, 0, 0, -9.19, 2427.46, -17021.88)" gradientUnits="userSpaceOnUse"><stop offset="0" stop-color="#c01818"/><stop offset="0.17" stop-color="#c01818"/><stop offset="0.77" stop-color="#d81f16"/><stop offset="1" stop-color="#d81f16"/></radialGradient><clipPath id="clip-path-2"><polygon class="cls-1" points="13.45 16.17 18.2 13.74 13.45 11.31 13.45 16.17"/></clipPath><radialGradient id="radial-gradient-2" cx="-140.72" cy="-2559.33" r="1.24" gradientTransform="matrix(1.96, 0, 0, -1.92, 292.16, -4910.17)" xlink:href="#radial-gradient"/></defs><title>youtube</title><g id="Layer_2" data-name="Layer 2"><g id="Layer_1-2" data-name="Layer 1"><path class="cls-2" d="M7.09,0S0,0,0,7V20.33s0,7,7.09,7h170s7.09,0,7.09-7V7S184.19,0,177.1,0H7.09"/><g class="cls-3"><rect class="cls-4" x="3.6" y="2.27" width="23.2" height="22.73"/></g><path class="cls-2" d="M23.92,15.7c0,2.15-.76,3.9-3,3.9H9.66c-2.2,0-3.18-1.75-3.18-3.9V11.58c0-2.15.89-3.9,3.09-3.9H21.06c2.2,0,2.86,1.75,2.86,3.9Z"/><g class="cls-5"><rect class="cls-6" x="13.45" y="11.31" width="4.75" height="4.86"/></g><path class="cls-7" d="M35.86,8h1.55L33.19,20.4H31.64Z"/><path class="cls-7" d="M37.89,8.16h2.9l3.86,10,3.78-10h2.9v12H49.57V9.78h0L45.47,20.19H43.75L39.68,9.78h0V20.19H37.89Z"/><path class="cls-7" d="M55.63,9.44H53.77V7.61h1.86Zm-1.76,2h1.66v8.79H53.87Z"/><path class="cls-7" d="M57.89,11.4h1.6v1.4h0a3.25,3.25,0,0,1,2.94-1.6c2.32,0,3.36,1.41,3.36,3.77v5.22H64.17V15.64c0-2.05-.46-3.05-1.9-3.13-1.88,0-2.73,1.48-2.73,3.62v4.06H57.89Z"/><path class="cls-7" d="M73.71,10a5.59,5.59,0,0,0-2.31-.5c-1,0-2.14.35-2.14,1.6,0,2.31,5.28,1.78,5.28,5.75,0,2.56-2,3.58-4.49,3.58a8.36,8.36,0,0,1-2.52-.5l.18-1.6a7.61,7.61,0,0,0,2.55.58c1,0,2.41-.55,2.41-2,0-2.69-5.28-2-5.28-5.69C67.39,9.09,69.12,8,71.33,8A8.24,8.24,0,0,1,74,8.39Z"/><path class="cls-7" d="M76.53,12a5.79,5.79,0,0,1,3-.82c2.57,0,3.61,1.24,3.61,3.63v3.64a14.61,14.61,0,0,0,.07,1.72H81.61V19.06h0A3.37,3.37,0,0,1,78.8,20.4c-1.94,0-3.29-.83-3.29-2.74,0-2.21,2.46-2.9,4.17-2.9.65,0,1.11,0,1.76,0,0-1.52-.57-2.29-2.22-2.29a4.25,4.25,0,0,0-2.6.89Zm4.91,4-1.06,0c-.9,0-3.11.14-3.11,1.69a1.57,1.57,0,0,0,1.67,1.43,2.24,2.24,0,0,0,2.5-2.31Z"/><path class="cls-7" d="M93.16,20.19h-1.6V18.8h0a3.22,3.22,0,0,1-2.93,1.6c-2.33,0-3.36-1.41-3.36-3.77V11.4h1.65V16c0,2.06.46,3.05,1.9,3.14,1.88,0,2.73-1.48,2.73-3.62V11.4h1.65Z"/><path class="cls-7" d="M101.66,19h0a3.61,3.61,0,0,1-3.06,1.45c-2.71,0-3.86-2.36-3.86-4.76S96,11.2,98.59,11.2a3.22,3.22,0,0,1,3,1.41h0V7.26h1.66V20.19h-1.59ZM99,19.09c1.87,0,2.64-1.81,2.64-3.27,0-1.64-.86-3.31-2.65-3.31s-2.5,1.65-2.47,3.25C96.44,17.14,97.18,19.09,99,19.09Z"/><path class="cls-7" d="M112.28,19.83a6.93,6.93,0,0,1-2.83.57c-3.19,0-4.65-1.9-4.65-4.76A4.12,4.12,0,0,1,109,11.2c3,0,4,2.13,4,5h-6.41a2.91,2.91,0,0,0,3,2.93,5.36,5.36,0,0,0,2.76-.88ZM111.21,15A2.23,2.23,0,0,0,109,12.51,2.45,2.45,0,0,0,106.56,15Z"/><path class="cls-7" d="M114.57,8.16h3.33c2.55,0,4.31.81,4.31,3,0,1.65-1,2.48-2.54,2.86v0a2.84,2.84,0,0,1,2.85,2.9c0,2.58-2.18,3.2-4.68,3.2h-3.27Zm1.76,5.14h1c1.71,0,3.15-.16,3.15-1.93,0-1.43-1.25-1.79-2.27-1.79h-1.85Zm0,5.48h1.32c1.58,0,3-.33,3-2,0-1.86-1.67-2.12-3.19-2.12h-1.14Z"/><path class="cls-7" d="M124.66,8.16h3c2.43,0,4.77.38,4.77,3.26a2.82,2.82,0,0,1-2.54,2.74v0a2.06,2.06,0,0,1,1.2,1.21l2.32,4.79h-2L129.53,16c-.54-1.17-1.12-1.17-2.06-1.17h-1v5.34h-1.76Zm1.76,5.17h1.49c1.67,0,2.66-.72,2.66-1.88s-.85-1.77-2.46-1.77h-1.69Z"/></g></g></svg>